<svg height="815" width="879" xmlns="http://www.w3.org/2000/svg" xmlns:xlink="http://www.w3.org/1999/xlink"><linearGradient id="a" gradientUnits="userSpaceOnUse" x1="219.836" x2="215.663" y1="283.14" y2="163.631"><stop offset="0" stop-color="#fddb92"/><stop offset="1" stop-color="#d1fdff"/></linearGradient><path d="m795.384 568.847c-26.891 70.211-171.93 156.48-358.929 207.611-220.011 60.17-414.78 48.92-435.03-25.131-20.25-74.039 178.49 23.76 398.51-36.41 120.139-32.859 221.77-106.02 292.59-153.609 58.869-39.58 96.449-61.49 105.639-27.871 3.041 11.111 1.97 23.012-2.78 35.41z" fill="#3f3d56"/><ellipse cx="254.597" cy="755.732" opacity=".1" rx="100" ry="10"/><ellipse cx="68.097" cy="746.732" opacity=".1" rx="45.5" ry="10"/><path d="m481.207 457.318c-4 0-8.025-.129-11.986-.381l.127-1.996c3.924.25 7.91.377 11.848.377l.119-.002v2l-.094.002zm12.205-.399-.131-1.996c3.967-.258 7.977-.65 11.914-1.166l.26 1.982c-3.981.522-8.034.919-12.043 1.18zm-36.237-1.146a185.118 185.118 0 0 1 -11.945-1.949l.387-1.963c3.895.77 7.871 1.418 11.816 1.928zm60.221-1.998-.389-1.961a183.35 183.35 0 0 0 11.658-2.713l.518 1.932a184.346 184.346 0 0 1 -11.787 2.742zm-83.956-2.68a184.373 184.373 0 0 1 -11.586-3.5l.641-1.895a182.353 182.353 0 0 0 11.46 3.461zm107.325-3.578-.643-1.895a180.983 180.983 0 0 0 11.182-4.215l.768 1.848a185.212 185.212 0 0 1 -11.307 4.262zm-130.258-4.185a185.377 185.377 0 0 1 -11.039-4.998l.885-1.793a181.988 181.988 0 0 0 10.919 4.943zm152.571-5.077-.887-1.793a184.948 184.948 0 0 0 10.543-5.648l1.002 1.73a183.952 183.952 0 0 1 -10.658 5.711zm-174.293-5.634a185.94 185.94 0 0 1 -10.284-6.4l1.111-1.662a183.261 183.261 0 0 0 10.173 6.33zm195.215-6.475-1.113-1.662a182.007 182.007 0 0 0 9.721-6.979l1.219 1.586a185.583 185.583 0 0 1 -9.827 7.055zm-215.341-6.98a186.52 186.52 0 0 1 -9.359-7.68l1.318-1.504a186.205 186.205 0 0 0 9.259 7.598zm234.518-7.756-1.32-1.502a185.589 185.589 0 0 0 8.736-8.187l1.414 1.414a187.51 187.51 0 0 1 -8.83 8.275zm-252.715-8.195a186.472 186.472 0 0 1 -8.28-8.827l1.502-1.32a184.994 184.994 0 0 0 8.191 8.732zm269.823-8.913-1.504-1.319a184.835 184.835 0 0 0 7.604-9.254l1.586 1.219a186.266 186.266 0 0 1 -7.686 9.354zm-285.792-9.259a187.47 187.47 0 0 1 -7.062-9.822l1.661-1.114a184.445 184.445 0 0 0 6.985 9.717zm300.54-9.933-1.662-1.112a184 184 0 0 0 6.336-10.169l1.73 1.002a185.425 185.425 0 0 1 -6.404 10.279zm-314.006-10.149a184.873 184.873 0 0 1 -5.718-10.654l1.792-.888c1.76 3.554 3.663 7.1 5.656 10.539zm326.131-10.81-1.793-.886a183.147 183.147 0 0 0 4.951-10.915l1.848.766a184.978 184.978 0 0 1 -5.006 11.035zm-336.854-10.847a184.152 184.152 0 0 1 -4.271-11.304l1.894-.645c1.278 3.753 2.7 7.515 4.225 11.181zm346.131-11.533-1.895-.642a183.225 183.225 0 0 0 3.469-11.458l1.932.517a183.464 183.464 0 0 1 -3.506 11.583zm-353.925-11.35a184.356 184.356 0 0 1 -2.752-11.785l1.962-.391a181.866 181.866 0 0 0 2.722 11.657zm360.167-12.023-1.963-.388a183.254 183.254 0 0 0 1.938-11.813l1.982.259a184.475 184.475 0 0 1 -1.957 11.942zm-364.891-11.701a187.64 187.64 0 0 1 -1.188-12.042l1.996-.132c.262 3.975.658 7.982 1.175 11.913zm368.02-12.285-1.996-.129c.256-3.952.385-7.977.385-11.965v-.475h2v.468c0 4.037-.131 8.106-.389 12.101zm-367.612-11.855h-2v-.245c0-3.94.125-7.929.374-11.848l1.996.126a186.79 186.79 0 0 0 -.37 11.728zm365.585-12.678a184.696 184.696 0 0 0 -1.189-11.912l1.982-.264c.529 3.98.934 8.031 1.203 12.042zm-364.071-11.206-1.983-.256a186.096 186.096 0 0 1 1.94-11.945l1.963.386a182.649 182.649 0 0 0 -1.92 11.815zm360.915-12.514a182.162 182.162 0 0 0 -2.736-11.653l1.932-.521a184.683 184.683 0 0 1 2.766 11.782zm-356.304-10.966-1.933-.514a183.482 183.482 0 0 1 3.493-11.588l1.895.64a181.87 181.87 0 0 0 -3.455 11.462zm350.067-12.135a180.125 180.125 0 0 0 -4.238-11.175l1.846-.771c1.545 3.7 2.986 7.501 4.285 11.298zm-342.404-10.553-1.849-.764a185.625 185.625 0 0 1 4.992-11.042l1.794.884a184.085 184.085 0 0 0 -4.937 10.922zm333.201-11.5a182.8 182.8 0 0 0 -5.67-10.532l1.729-1.005a183.342 183.342 0 0 1 5.732 10.647zm-322.619-9.994-1.732-.999a185.995 185.995 0 0 1 6.393-10.288l1.663 1.11a184.907 184.907 0 0 0 -6.324 10.177zm310.602-10.678a184.59 184.59 0 0 0 -6.998-9.708l1.584-1.222a188.184 188.184 0 0 1 7.074 9.813zm-297.305-9.238-1.588-1.217a185.937 185.937 0 0 1 7.675-9.364l1.505 1.317a184.485 184.485 0 0 0 -7.592 9.264zm282.689-9.704a185.372 185.372 0 0 0 -8.203-8.721l1.412-1.417a186.826 186.826 0 0 1 8.291 8.816zm-266.921-8.309-1.416-1.412a187.018 187.018 0 0 1 8.821-8.286l1.321 1.501a185.543 185.543 0 0 0 -8.726 8.197zm249.964-8.583a184.766 184.766 0 0 0 -9.268-7.586l1.215-1.588a186.77 186.77 0 0 1 9.369 7.668zm-231.999-7.225-1.221-1.584a186.64 186.64 0 0 1 9.818-7.068l1.115 1.66a185.19 185.19 0 0 0 -9.712 6.992zm212.986-7.328a184.04 184.04 0 0 0 -10.18-6.316l.998-1.733a185.75 185.75 0 0 1 10.291 6.386zm-193.128-6.006-1.004-1.729a185.805 185.805 0 0 1 10.649-5.725l.889 1.792a183.073 183.073 0 0 0 -10.534 5.662zm172.372-5.948a183.133 183.133 0 0 0 -10.924-4.931l.762-1.849a184.06 184.06 0 0 1 11.045 4.985zm-150.957-4.673-.77-1.846a185.075 185.075 0 0 1 11.302-4.278l.646 1.893a182.58 182.58 0 0 0 -11.178 4.231zm128.802-4.46a182.567 182.567 0 0 0 -11.463-3.447l.512-1.934a184.205 184.205 0 0 1 11.59 3.485zm-106.173-3.263-.52-1.932a184.915 184.915 0 0 1 11.783-2.76l.393 1.961a183.3 183.3 0 0 0 -11.656 2.731zm83.043-2.867a183.71 183.71 0 0 0 -11.816-1.912l.254-1.983c3.99.512 8.01 1.162 11.947 1.933zm-59.579-1.821-.262-1.982c3.973-.525 8.023-.928 12.041-1.195l.133 1.996c-3.974.264-7.982.662-11.912 1.181zm35.846-1.228c-3.84-.24-7.746-.362-11.611-.362h-.355v-2h.352c3.912 0 7.859.123 11.74.366zm-11.537 311.638-.002-2c3.908-.003 7.85-.185 11.717-.54l.184 1.991c-3.928.362-7.932.546-11.899.549zm-11.896-.534a129.232 129.232 0 0 1 -11.799-1.624l.363-1.967a127.2 127.2 0 0 0 11.617 1.599zm35.593-1.651-.365-1.966c3.83-.714 7.672-1.616 11.416-2.681l.547 1.924a128.745 128.745 0 0 1 -11.598 2.723zm-58.994-2.682a128.913 128.913 0 0 1 -11.298-3.777l.722-1.865a126.335 126.335 0 0 0 11.122 3.717zm81.885-3.831-.723-1.864a127.188 127.188 0 0 0 10.723-4.746l.893 1.789a128.93 128.93 0 0 1 -10.893 4.821zm-104.085-4.756a128.868 128.868 0 0 1 -10.409-5.799l1.053-1.7a127.229 127.229 0 0 0 10.248 5.709zm125.376-5.874-1.055-1.699a127.764 127.764 0 0 0 9.668-6.64l1.207 1.595a129.999 129.999 0 0 1 -9.82 6.744zm-145.614-6.659a130.125 130.125 0 0 1 -9.168-7.608l1.347-1.479a128.673 128.673 0 0 0 9.026 7.491zm164.592-7.704-1.348-1.478a128.005 128.005 0 0 0 8.293-8.296l1.479 1.348a130.013 130.013 0 0 1 -8.424 8.426zm-182.19-8.321a130.152 130.152 0 0 1 -7.623-9.154l1.595-1.208a127.893 127.893 0 0 0 7.505 9.014zm198.228-9.267-1.596-1.206a128.201 128.201 0 0 0 6.637-9.673l1.699 1.054a130.333 130.333 0 0 1 -6.74 9.825zm-212.602-9.704a129.073 129.073 0 0 1 -5.816-10.396l1.789-.895a127.3 127.3 0 0 0 5.726 10.235zm225.145-10.528-1.789-.893a125.903 125.903 0 0 0 4.742-10.729l1.865.723a128.536 128.536 0 0 1 -4.818 10.899zm-235.787-10.758a128.805 128.805 0 0 1 -3.796-11.292l1.923-.549a126.896 126.896 0 0 0 3.737 11.116zm244.388-11.437-1.924-.546a127.534 127.534 0 0 0 2.672-11.417l1.967.365a129.347 129.347 0 0 1 -2.715 11.598zm-250.914-11.45a129.748 129.748 0 0 1 -1.644-11.797l1.991-.185c.36 3.886.904 7.793 1.618 11.614zm255.26-11.948-1.992-.182c.354-3.867.533-7.809.533-11.714v-.298h2v.288c0 3.977-.182 7.979-.541 11.906zm-255.46-11.747h-2v-.148c0-3.915.178-7.867.528-11.748l1.992.18a128.807 128.807 0 0 0 -.521 11.568v.148zm253.44-12.159a127.183 127.183 0 0 0 -1.633-11.612l1.965-.369c.73 3.877 1.287 7.845 1.658 11.794zm-251.328-11.176-1.967-.363c.718-3.89 1.627-7.792 2.702-11.602l1.925.544a126.791 126.791 0 0 0 -2.66 11.421zm246.996-11.847a126.224 126.224 0 0 0 -3.75-11.111l1.863-.727a127.913 127.913 0 0 1 3.809 11.287zm-240.625-10.698-1.866-.721a129.032 129.032 0 0 1 4.804-10.904l1.791.891a126.722 126.722 0 0 0 -4.729 10.734zm232.11-11.128a126.846 126.846 0 0 0 -5.736-10.228l1.697-1.058a128.184 128.184 0 0 1 5.826 10.389zm-221.679-9.856-1.701-1.052a129.826 129.826 0 0 1 6.729-9.833l1.597 1.204a127.884 127.884 0 0 0 -6.625 9.681zm209.286-10.028a128.632 128.632 0 0 0 -7.516-9.005l1.475-1.351a130.664 130.664 0 0 1 7.633 9.146zm-195.175-8.684-1.479-1.346a130.743 130.743 0 0 1 8.412-8.436l1.35 1.476a128.257 128.257 0 0 0 -8.283 8.306zm179.347-8.599a128.224 128.224 0 0 0 -9.033-7.48l1.203-1.598a130.259 130.259 0 0 1 9.176 7.598zm-162.055-7.218-1.209-1.594a129.663 129.663 0 0 1 9.812-6.755l1.057 1.698a127.721 127.721 0 0 0 -9.66 6.651zm143.336-6.881a127.147 127.147 0 0 0 -10.254-5.697l.889-1.791a128.941 128.941 0 0 1 10.416 5.787zm-123.445-5.501-.896-1.788c3.538-1.771 7.2-3.398 10.887-4.833l.726 1.863a127.038 127.038 0 0 0 -10.717 4.758zm102.455-4.919a127.121 127.121 0 0 0 -11.127-3.704l.543-1.925a128.366 128.366 0 0 1 11.303 3.763zm-80.625-3.582-.549-1.923a128.71 128.71 0 0 1 11.594-2.737l.369 1.966a126.575 126.575 0 0 0 -11.414 2.694zm58.076-2.775a127.397 127.397 0 0 0 -11.619-1.584l.178-1.992c3.947.354 7.918.896 11.803 1.61zm-35.049-1.544-.186-1.991c3.928-.366 7.93-.555 11.896-.562l.004 2a128.69 128.69 0 0 0 -11.714.553z" fill="#e6e6e6"/><path d="m498.705 534.794c-5.76-1.879-12.943-5.191-17.459-8.824l3.414 8.383c-116.336 1.611-220.837-74.885-254.414-186.646-33.46-111.374 11.228-232.573 108.698-295.489l1.8 8.871c1.748-5.525 5.896-12.263 9.649-17.018-5.946 1.157-13.835 1.753-19.547.773l7.056 5.665a265.87 265.87 0 0 0 -103.551 128.083c-42.479 111.911-4.367 238.399 92.868 308.211a265.931 265.931 0 0 0 153.97 49.586c1.182 0 2.367-.021 3.551-.039l-2.738 8.627c4.212-3.979 11.111-7.852 16.703-10.183zm235.298-338.433c-32.447-108-129.89-183.481-242.572-187.899l3.19-8.462c-4.418 3.75-11.512 7.252-17.219 9.281 5.65 2.183 12.648 5.872 16.965 9.739l-2.967-8.557c144.637 5.699 257.266 127.569 251.566 272.205a262.082 262.082 0 0 1 -107.072 201.16l-2.32-8.756c-1.42 5.619-5.164 12.588-8.633 17.555 5.867-1.504 13.707-2.562 19.467-1.92l-7.371-5.236c90.304-66.096 129.156-181.929 96.966-289.11z" fill="#3f3d56"/><path d="m795.384 568.847c-6.891.311-13.969.471-21.189.471-31.221 0-59.76-3.02-81.67-8.01 58.869-39.58 96.449-61.49 105.641-27.871 3.039 11.111 1.968 23.012-2.782 35.41z" opacity=".1"/><path d="m220.326 45.318c-27.717 0-47.896 18.82-54.699 45.69l-8.433 40.31h6l13-33-2.737 33h6.737l5-17-1.053 17h81.053v-41.132c.001-24.78-20.088-44.868-44.868-44.868z" fill="#2f2e41"/><path d="m168.195 346.379 19 91.824 104 1.531-26-96.416z" fill="#3f3d56"/><path d="m168.195 346.379 19 91.824 104 1.531-26-96.416z" opacity=".1"/><path d="m183.694 274.818s-41 57-39 80 28 398 28 398l61 3-18-270 15-73 37 340 75 2-67-441-13-39z" fill="#2f2e41"/><path d="m197.694 100.818s13 24-4 40-25 59-25 59l96-7-8-54s-21-13-16-36z" fill="#a0616a"/><path d="m197.694 100.818s13 24-4 40-25 59-25 59l96-7-8-54s-21-13-16-36z" opacity=".1"/><path d="m181.694 164.818s6 18 32 16a89.212 89.212 0 0 0 44-16v117l-80-3v-71z" fill="url(#a)"/><path d="m200.338 131.276-7.644 5.542-46 22 16 83 11 18v22l-27 38a412.471 412.471 0 0 0 -10 82c-1 46 11 34 17 33s19-4 19-4l-21-98 35-51 6-20s-2-47-10-66c0 0 15.287-50.084 17.644-64.542zm42.044-9.458 18.312 18 36 11-17 94-10 20 2 20s37.474 40.191 43 120c2.903 41.914-3.097 39.914-3.097 39.914l-73.903-.914-12-166 23-125z" fill="#3f3d56"/><path d="m317.694 361.818s10 43-10 48-13-48-13-48zm-176.388-44.631s38.507 21.592 28.722 39.737c-9.785 18.146-44.223-22.746-44.223-22.746z" fill="#a0616a"/><path d="m281.694 152.818 15-2s9 12 10 21 17 161 17 161l16 29s-1 5-9 5h-8l-3 12s-6-23-29-11l-9-3 6-11s-6-53-6-78-2-52-2-52z" fill="#3f3d56"/><ellipse cx="209.25" cy="754.325" fill="#2f2e41" rx="14.22" ry="5.333"/><ellipse cx="305.233" cy="754.325" fill="#2f2e41" rx="14.22" ry="5.333"/><path d="m157.694 157.818-11 1-25 97s-10 64-8 67 0 8-2 10 8 30 18 29 14-4 14-4-9-26 14-35l6-20-6-33 8-46z" fill="#3f3d56"/><ellipse cx="253.695" cy="91.318" fill="#a0616a" rx="1.5" ry="5"/><ellipse cx="185.695" cy="91.318" fill="#a0616a" rx="1.5" ry="5"/><circle cx="219.695" cy="88.818" fill="#a0616a" r="33"/><path d="m205.195 71.318-.843 8h22.843l3-6-.632 6h27.632l-19-30-42 1-10 29h15z" fill="#2f2e41"/><g fill="#3f3d56"><circle cx="774.195" cy="431.318" r="105"/><circle cx="781.195" cy="257.318" r="78"/><circle cx="781.195" cy="117.318" r="67"/></g><circle cx="782.195" cy="34.318" fill="#fddb92" r="26"/><path d="m64.611 706.636c6.706 24.791 29.677 40.145 29.677 40.145s12.098-24.84 5.392-49.631c-6.707-24.791-29.677-40.145-29.677-40.145s-12.099 24.84-5.392 49.631z" fill="#3f3d56"/><path d="m74.465 701.308c18.402 17.914 20.65 45.453 20.65 45.453s-27.588-1.508-45.991-19.422c-18.402-17.912-20.65-45.451-20.65-45.451s27.589 1.506 45.991 19.42z" fill="#d1fdff"/><circle cx="481.195" cy="272.318" fill="#f2f2f2" r="41"/></svg>