<svg xmlns="http://www.w3.org/2000/svg" data-name="Layer 1" viewBox="0 0 1113.89 612.24">
  <path fill="none" stroke="#3f3d56" stroke-miterlimit="10" d="M476.9 96.25h452v93h-452zM207.17 228.35c12.89-20.14 37.3-33.72 65.27-33.72 41.43 0 75 29.77 75 66.5 0 23.48-13.72 44.12-34.45 55.95"/>
  <path fill="#6c63ff" d="M444.9 114.25h452v93h-452z"/>
  <circle cx="159.17" cy="18.5" r="7" fill="#6c63ff"/>
  <circle cx="183.17" cy="18.5" r="7" fill="#6c63ff"/>
  <circle cx="207.17" cy="18.5" r="7" fill="#6c63ff"/>
  <path fill="none" stroke="#3f3d56" stroke-miterlimit="10" d="M140.17.5h840v546h-840zM140.17 30.84h840"/>
  <circle cx="161.17" cy="15.5" r="7" fill="none" stroke="#3f3d56" stroke-miterlimit="10"/>
  <circle cx="185.17" cy="15.5" r="7" fill="none" stroke="#3f3d56" stroke-miterlimit="10"/>
  <circle cx="209.17" cy="15.5" r="7" fill="none" stroke="#3f3d56" stroke-miterlimit="10"/>
  <path d="M32.22 204.55a21.62 21.62 0 1 0-26.64-31.9l8.1 7.65-10.4-3.24a21.54 21.54 0 0 0 .42 16.47 21.2 21.2 0 0 0 3.15 5.08 21.62 21.62 0 0 0 25.37 5.94z" fill="#57b894"/>
  <path d="M140.39 279.6c-7.9-5.54-7.9-17.16-5.93-26.6s4.95-19.75.5-28.3c-6.4-12.3-23.22-13.04-37.01-14.36a130.16 130.16 0 0 1-30.05-6.51c-3.9-1.34-7.8-2.91-11-5.52-4.6-3.76-7.3-9.3-9.81-14.68Q34.51 156.75 23.2 129.3" fill="none" stroke="#3f3d56" stroke-miterlimit="10"/>
  <path d="M30.87 201.87a21.62 21.62 0 1 0-26.63-31.9l8.1 7.64-10.41-3.23a21.54 21.54 0 0 0 .43 16.47 21.2 21.2 0 0 0 3.15 5.08 21.62 21.62 0 0 0 25.36 5.94z" fill="none" stroke="#3f3d56" stroke-miterlimit="10"/>
  <path d="M4.52 141.9a21.6 21.6 0 0 1 1.73-20.66l8.61 6.4-5.3-10.3a21.62 21.62 0 1 1-5.04 24.57z" fill="#57b894"/>
  <path d="M2.74 138.33a21.6 21.6 0 0 1 1.73-20.66l8.6 6.4-5.3-10.3a21.62 21.62 0 1 1-5.03 24.56z" fill="none" stroke="#3f3d56" stroke-miterlimit="10"/>
  <path d="M95.36 213.13a21.62 21.62 0 0 0-12.84-41l4.09 7.92-8.71-6.48a.38.38 0 0 0-.06.03 21.62 21.62 0 1 0 17.52 39.53z" fill="#57b894"/>
  <path d="M93.42 209.62a21.62 21.62 0 0 0-12.83-40.99l4.08 7.92-8.71-6.48a.38.38 0 0 0-.05.02 21.62 21.62 0 1 0 17.5 39.53z" fill="none" stroke="#3f3d56" stroke-miterlimit="10"/>
  <path d="M103.99 254.61a21.6 21.6 0 1 0-8.72-15.1l16.99 3.8-14.83 3.56a21.42 21.42 0 0 0 6.56 7.74z" fill="#57b894"/>
  <path d="M102.64 251.93a21.6 21.6 0 1 0-8.71-15.1l16.98 3.79-14.82 3.56a21.42 21.42 0 0 0 6.55 7.75z" fill="none" stroke="#3f3d56" stroke-miterlimit="10"/>
  <path d="M1041.56 458.39a20.81 20.81 0 1 0 8.34-39.13l-.99 10.68-3.73-9.8a20.73 20.73 0 0 0-12.22 10.1 20.4 20.4 0 0 0-1.98 5.41 20.8 20.8 0 0 0 10.58 22.74z" fill="#57b894"/>
  <path d="M1048.97 584.92c-.5-9.27 8.32-16.18 16.63-20.3s17.9-7.98 21.74-16.44c5.51-12.15-3.92-25.33-11.12-36.56A125.3 125.3 0 0 1 1063.3 485c-1.3-3.75-2.43-7.64-2.35-11.6.12-5.72 2.71-11.06 5.3-16.16q12.87-25.5 26.95-50.37" fill="none" stroke="#3f3d56" stroke-miterlimit="10"/>
  <path d="M1042.8 455.78a20.81 20.81 0 1 0 8.33-39.13l-.99 10.68-3.73-9.8a20.73 20.73 0 0 0-12.22 10.1 20.4 20.4 0 0 0-1.97 5.41 20.8 20.8 0 0 0 10.57 22.74z" fill="none" stroke="#3f3d56" stroke-miterlimit="10"/>
  <path d="M1072.55 400.2a20.79 20.79 0 0 1 16.68-10.97l.27 10.32 4.65-10.14a20.81 20.81 0 1 1-21.6 10.79z" fill="#57b894"/>
  <path d="M1074.2 396.72a20.79 20.79 0 0 1 16.68-10.97l.27 10.32 4.64-10.14a20.81 20.81 0 1 1-21.6 10.79z" fill="none" stroke="#3f3d56" stroke-miterlimit="10"/>
  <path d="M1072.57 511.31a20.81 20.81 0 0 0 23.43-34.07l-3.57 7.8-.27-10.45a.36.36 0 0 0-.05-.03 20.81 20.81 0 1 0-19.54 36.75z" fill="#57b894"/>
  <path d="M1074.07 507.77a20.81 20.81 0 0 0 23.43-34.08l-3.57 7.8-.27-10.45a.36.36 0 0 0-.05-.03 20.81 20.81 0 1 0-19.54 36.76z" fill="none" stroke="#3f3d56" stroke-miterlimit="10"/>
  <path d="M1046.27 542.5a20.8 20.8 0 1 0 6.26-15.58l7.22 15.12-11.5-9.1a20.62 20.62 0 0 0-1.98 9.56z" fill="#57b894"/>
  <path d="M1047.51 539.89a20.8 20.8 0 1 0 6.25-15.58l7.23 15.12-11.5-9.1a20.62 20.62 0 0 0-1.98 9.56z" fill="none" stroke="#3f3d56" stroke-miterlimit="10"/>
  <path d="M115.22 118.55a21.62 21.62 0 1 0-26.64-31.9l8.1 7.65-10.4-3.24a21.54 21.54 0 0 0 .42 16.47 21.2 21.2 0 0 0 3.15 5.08 21.62 21.62 0 0 0 25.37 5.94z" fill="#57b894"/>
  <path d="M139.9 112.3c-4.6-3.75-7.3-9.3-9.81-14.67Q117.51 70.75 106.2 43.3" fill="none" stroke="#3f3d56" stroke-miterlimit="10"/>
  <path d="M113.87 115.87a21.62 21.62 0 1 0-26.63-31.9l8.1 7.64-10.41-3.23a21.54 21.54 0 0 0 .43 16.47 21.2 21.2 0 0 0 3.15 5.08 21.62 21.62 0 0 0 25.36 5.94z" fill="none" stroke="#3f3d56" stroke-miterlimit="10"/>
  <path d="M87.52 55.9a21.6 21.6 0 0 1 1.73-20.66l8.61 6.4-5.3-10.3a21.62 21.62 0 1 1-5.04 24.57z" fill="#57b894"/>
  <path d="M85.74 52.33a21.6 21.6 0 0 1 1.73-20.66l8.6 6.4-5.3-10.3a21.62 21.62 0 1 1-5.03 24.56zM403.9 30.84v516.44" fill="none" stroke="#3f3d56" stroke-miterlimit="10"/>
  <path fill="#f2f2f2" d="M498.4 284.75h147v20h-147zM729.4 284.75h147v20h-147z"/>
  <path fill="none" stroke="#3f3d56" stroke-miterlimit="10" d="M506.4 274.75h147v20h-147z"/>
  <path fill="#f2f2f2" d="M498.4 439.75h147v20h-147z"/>
  <path fill="none" stroke="#3f3d56" stroke-miterlimit="10" d="M506.4 429.75h147v20h-147z"/>
  <path fill="#f2f2f2" d="M498.9 360.25h378v20h-378z"/>
  <path fill="none" stroke="#3f3d56" stroke-miterlimit="10" d="M506.9 352.25h378v20h-378zM737.4 274.75h147v20h-147z"/>
  
  
  
  
  <circle cx="1023.14" cy="563.63" r="1.09" fill="#f2f2f2"/>
  <circle cx="1009.2" cy="561.88" r="1.09" fill="#f2f2f2"/>
  <circle cx="1019.38" cy="571.02" r="1.09" fill="#f2f2f2"/>
  <circle cx="1009.86" cy="569.74" r="1.09" fill="#f2f2f2"/>
  <circle cx="1021.49" cy="567.56" r="1.09" fill="#f2f2f2"/>
  <circle cx="1009.2" cy="565.81" r="1.09" fill="#f2f2f2"/>
  <circle cx="1018.29" cy="575.08" r="1.09" fill="#f2f2f2"/>
  <circle cx="1009.86" cy="573.67" r="1.09" fill="#f2f2f2"/>
  
  
  
  <circle cx="920.91" cy="587.6" r="1.09" fill="#f2f2f2"/>
  <circle cx="914.66" cy="590.65" r="1.09" fill="#f2f2f2"/>
  <circle cx="918.02" cy="589.09" r="1.09" fill="#f2f2f2"/>
  <circle cx="911.15" cy="592.45" r="1.09" fill="#f2f2f2"/>
  
  
  
  
  
  
  
  
  
  
  
  
  
  <circle cx="927.05" cy="381.35" r="1.45" fill="#f2f2f2"/>
  <circle cx="917.17" cy="400.03" r="1.45" fill="#f2f2f2"/>
  <circle cx="996.15" cy="406.83" r="1.45" fill="#f2f2f2"/>
  <circle cx="1004.37" cy="433.22" r="1.45" fill="#f2f2f2"/>
  <circle cx="1001.17" cy="425.79" r="1.45" fill="#f2f2f2"/>
  <circle cx="998.39" cy="416.31" r="1.45" fill="#f2f2f2"/>
  <circle cx="921.78" cy="390.2" r="1.45" fill="#f2f2f2"/>
  <circle cx="911.4" cy="409.73" r="1.45" fill="#f2f2f2"/>
  
  
  
  
  
  <g opacity=".1">
    
  </g>
  
  <path fill="none" stroke="#3f3d56" stroke-miterlimit="10" d="M880.4 611.75l200-31"/>
  <path d="M181.31 275.12c0 26.14 17.17 48.72 42.06 59.42l-35.6-86.28a59.39 59.39 0 0 0-6.46 26.86zm125.02-3.33c0-8.16-3.31-13.8-6.16-18.2-3.78-5.44-7.32-10.05-7.32-15.49 0-6.06 5.2-11.71 12.53-11.71.33 0 .64.03.97.05a79.97 79.97 0 0 0-50.4-17.33c-26.08 0-49.02 11.83-62.36 29.75 1.75.05 3.4.08 4.8.08 7.8 0 19.89-.84 19.89-.84 4.02-.2 4.5 5.02.48 5.44 0 0-4.04.42-8.54.63l27.18 71.51 16.33-43.33-11.63-28.18c-4.02-.2-7.83-.63-7.83-.63-4.02-.2-3.55-5.65.48-5.44 0 0 12.32.84 19.65.84 7.8 0 19.9-.84 19.9-.84 4.02-.2 4.5 5.02.47 5.44 0 0-4.05.42-8.54.63l26.97 70.97 7.45-22c3.22-9.14 5.68-15.7 5.68-21.35z" fill="#6c63ff"/>
  <path d="M257.25 280.9l-22.39 57.55a83.95 83.95 0 0 0 45.87-1.05 5.39 5.39 0 0 1-.53-.9zm64.18-37.45a44.91 44.91 0 0 1 .5 6.79c0 6.7-1.4 14.23-5.67 23.64l-22.8 58.3c22.2-11.44 37.12-32.7 37.12-57.06a59.78 59.78 0 0 0-9.15-31.67z" fill="#6c63ff"/>
</svg>